<svg width="114" height="123" viewBox="0 0 114 123" fill="none" xmlns="http://www.w3.org/2000/svg">
<g filter="url(#filter0_d_117_159)">
<rect x="4.46362" y="4.54056" width="105.536" height="109.892" rx="20" fill="white"/>
<rect width="88.1598" height="93.8291" transform="translate(13.1422 11.6715)" fill="white"/>
<path d="M74.5887 58.586C74.5887 69.2687 72.5525 78.8911 69.3041 85.8055C66.0187 92.7989 61.6781 96.6815 57.2221 96.6815C52.7661 96.6815 48.4254 92.7989 45.14 85.8055C41.8917 78.8911 39.8555 69.2687 39.8555 58.586C39.8555 47.9034 41.8917 38.281 45.14 31.3666C48.4254 24.3732 52.7661 20.4906 57.2221 20.4906C61.6781 20.4906 66.0187 24.3732 69.3041 31.3666C72.5525 38.281 74.5887 47.9034 74.5887 58.586Z" stroke="black" stroke-width="2"/>
<path d="M65.9286 74.6353C57.2513 79.9673 48.4214 82.895 41.1881 83.3571C33.8984 83.8228 28.528 81.7865 26.2622 77.6097C23.9964 73.4329 25.0247 67.4647 29.0485 60.9785C33.0411 54.5424 39.8383 47.8676 48.5156 42.5356C57.1929 37.2036 66.0228 34.2759 73.2561 33.8138C80.5458 33.3481 85.9162 35.3844 88.182 39.5613C90.4478 43.7381 89.4195 49.7062 85.3958 56.1924C81.4031 62.6285 74.6059 69.3033 65.9286 74.6353Z" stroke="black" stroke-width="2"/>
<path d="M65.9285 42.536C57.2513 37.204 48.4214 34.2763 41.188 33.8142C33.8983 33.3485 28.5279 35.3848 26.2621 39.5617C23.9964 43.7385 25.0246 49.7066 29.0484 56.1928C33.0411 62.6289 39.8383 69.3037 48.5156 74.6357C57.1928 79.9677 66.0227 82.8954 73.2561 83.3575C80.5458 83.8232 85.9162 81.7869 88.182 77.6101C90.4477 73.4332 89.4195 67.4651 85.3957 60.9789C81.403 54.5428 74.6058 47.868 65.9285 42.536Z" stroke="black" stroke-width="2"/>
<path d="M57 69C57 69 53.9268 68.5435 51.9745 68.5435V68.5435C49.3435 68.5435 47 66.6321 47 64.0011V53.9443C47 52.5429 47.7961 51.1713 49.1855 50.9883V50.9883M57 69C57 69 59.971 68.5435 61.9234 68.5435V68.5435C64.6124 68.5435 67 66.5885 67 63.8994V53.7448C67 52.4561 66.2879 51.2031 65.0102 51.0349V51.0349M57 69V66.2571M57 66.2571C57 66.2571 54.3952 65.8044 52.8333 65.8044V65.8044C50.8866 65.8044 49.0956 64.4223 49.1086 62.4756L49.1855 50.9883M57 66.2571C57 66.2571 59.4688 65.8044 61.0307 65.8044V65.8044C63.0541 65.8044 64.9283 64.4043 64.9407 62.3809L65.0102 51.0349M57 66.2571V48.4565M49.1855 50.9883V50.9883C49.1855 49.5187 50.2278 48.2388 51.6894 48.086C52.176 48.0352 52.6667 48 53.0928 48C54.6273 48 57 48.4565 57 48.4565M65.0102 51.0349V51.0349C65.0102 49.5398 63.9462 48.2402 62.459 48.0876C61.9551 48.0359 61.4463 48 61.0051 48C59.4326 48 57 48.4565 57 48.4565" stroke="black" stroke-width="2" stroke-linecap="round" stroke-linejoin="round"/>
</g>
<defs>
<filter id="filter0_d_117_159" x="-3" y="0" width="121" height="127" filterUnits="userSpaceOnUse" color-interpolation-filters="sRGB">
<feFlood flood-opacity="0" result="BackgroundImageFix"/>
<feColorMatrix in="SourceAlpha" type="matrix" values="0 0 0 0 0 0 0 0 0 0 0 0 0 0 0 0 0 0 127 0" result="hardAlpha"/>
<feOffset dy="4"/>
<feGaussianBlur stdDeviation="2"/>
<feComposite in2="hardAlpha" operator="out"/>
<feColorMatrix type="matrix" values="0 0 0 0 0 0 0 0 0 0 0 0 0 0 0 0 0 0 0.5 0"/>
<feBlend mode="normal" in2="BackgroundImageFix" result="effect1_dropShadow_117_159"/>
<feBlend mode="normal" in="SourceGraphic" in2="effect1_dropShadow_117_159" result="shape"/>
</filter>
</defs>
</svg>
